<?xml version="1.0" standalone="no"?><!DOCTYPE svg PUBLIC "-//W3C//DTD SVG 1.1//EN" "http://www.w3.org/Graphics/SVG/1.1/DTD/svg11.dtd"><svg t="1493085743015" class="icon" style="" viewBox="0 0 1024 1024" version="1.1" xmlns="http://www.w3.org/2000/svg" p-id="20296" xmlns:xlink="http://www.w3.org/1999/xlink" width="32" height="32"><defs><style type="text/css"></style></defs><path d="M598.045725 960.018803c9.131985-1.741667 18.252713-3.477194 26.941606-5.64865 5.64865-1.305739 10.862395-5.213745 13.904685-9.991562 3.042289-5.218862 3.9121-11.30344 2.606361-16.95209-2.606361-9.991562-11.298324-16.945951-21.723767-16.945951-1.741667 0-3.477194 0.434905-5.213745 0.870834-8.256034 2.171456-16.075117 3.9121-24.336268 5.213745-12.163017 2.171456-19.987217 13.903661-17.810644 26.071795 0.864694 5.643534 4.341888 10.857279 9.120728 14.33959 3.9121 2.607384 8.260128 3.906983 12.603039 3.906983C595.444481 960.453708 596.74408 960.453708 598.045725 960.018803L598.045725 960.018803zM598.045725 960.018803" p-id="20297" fill="#2c2c2c"></path><path d="M923.93498 403.406746c2.166339 0 4.77884-0.434905 6.945179-1.305739 11.737322-3.914146 18.252713-16.517185 14.343683-28.243251-3.042289-8.69094-6.084579-17.381879-9.561773-26.072819-3.472078-8.69094-11.728112-13.903661-20.852934-13.903661-3.042289 0-5.64865 0.434905-8.256034 1.740644-5.64865 2.171456-9.991562 6.514367-12.168134 11.728112-2.171456 5.218862-2.607384 11.733229 0 16.946974 3.042289 7.819083 6.084579 15.645328 8.69094 23.464411 1.305739 4.343935 4.347005 8.256034 8.255011 11.298324C914.810159 402.101008 919.152047 403.406746 923.93498 403.406746L923.93498 403.406746 923.93498 403.406746zM923.93498 403.406746" p-id="20298" fill="#2c2c2c"></path><path d="M731.013109 910.045645c3.908006 0 7.814989-0.86674 11.298324-3.037173 7.821129-4.77884 16.075117-9.561773 23.461341-14.34573 4.777817-3.472078 8.255011-8.250918 9.561773-14.338566 1.300622-5.643534 0-11.728112-3.042289-16.946974-4.349051-6.078439-11.298324-9.991562-18.682501-9.991562-4.349051 0-8.69094 1.305739-12.168134 3.9121-6.954389 4.77884-13.904685 9.125845-21.293979 13.032828-10.861372 6.084579-14.334473 19.989263-8.256034 30.41573 1.741667 3.042289 3.914146 5.213745 6.519484 6.954389C721.883171 908.309094 726.230176 910.045645 731.013109 910.045645L731.013109 910.045645 731.013109 910.045645zM731.013109 910.045645" p-id="20299" fill="#2c2c2c"></path><path d="M932.620803 543.754215c3.477194 2.601244 7.826246 3.906983 12.173251 3.906983l0.429789 0c12.168134 0 22.164812-9.991562 22.164812-21.724791 0-9.124821 0-18.250666-0.440022-27.371394-0.429789-12.168134-10.426467-21.293979-22.153556-21.293979l-0.86981 0c-12.168134 0.434905-21.729907 10.861372-21.295002 23.029506 0.434905 8.256034 0.434905 16.512069 0 24.766057C923.06517 532.455891 926.542364 539.40721 932.620803 543.754215L932.620803 543.754215zM932.620803 543.754215" p-id="20300" fill="#2c2c2c"></path><path d="M873.097128 755.793492c-3.9121-3.037173-8.69094-4.341888-13.468756-4.341888-6.954389 0-13.469779 3.477194-17.816784 9.125845-4.77884 6.519484-9.991562 13.032828-15.640212 19.552312-7.821129 9.561773-6.954389 23.464411 2.607384 31.28554 0.429789 0.434905 0.864694 0.864694 1.735527 1.305739 3.914146 2.607384 8.256034 3.914146 13.039991 3.914146 6.514367 0 12.603039-3.047406 16.945951-7.826246 6.078439-6.949272 11.728112-14.338566 17.376763-21.723767C884.830357 777.518283 882.657878 763.184833 873.097128 755.793492L873.097128 755.793492zM873.097128 755.793492" p-id="20301" fill="#2c2c2c"></path><path d="M932.620803 622.400413c-2.170432-0.86981-4.341888-0.86981-6.519484-0.86981-9.985422 0-18.246573 6.084579-21.288862 15.640212-2.605338 7.826246-5.212722 15.645328-8.255011 23.466458-3.473101 9.561773-0.430812 20.418029 7.819083 26.066679 1.306762 0.870834 3.042289 1.741667 4.783956 2.607384 2.601244 0.86981 5.212722 1.305739 7.819083 1.305739 9.120728 0 17.381879-5.647627 20.853957-14.338566 3.042289-8.256034 6.084579-16.946974 9.125845-26.067702C950.873516 638.912481 944.354032 626.309442 932.620803 622.400413L932.620803 622.400413zM932.620803 622.400413" p-id="20302" fill="#2c2c2c"></path><path d="M841.376683 224.819348c2.171456 0 4.347005-1.301645 5.208629-2.607384 0.870834-1.305739 1.305739-3.477194 0.434905-5.64865L814.43303 99.246375l-34.322713 49.532113-12.603039-8.253988c-74.734098-49.968042-161.201425-76.475765-250.714112-76.475765-26.067702 0-52.139497 2.171456-78.211293 6.949272-11.298324 2.177596-23.030529 4.349051-34.322713 7.391341l-1.306762 0.434905c-100.370988 25.63689-186.408527 83.425038-248.538563 166.419264l-0.86981 1.301645c0 0.434905-0.434905 0.434905-0.434905 0.870834-2.171456 3.042289-4.348028 5.64865-6.084579 8.69094-3.472078 4.776793-6.514367 9.555633-9.555633 14.338566l-0.870834 1.736551c-51.269687 79.081103-75.605955 170.32727-71.696925 264.183891l0 1.305739c0.434905 8.685823 1.305739 17.811668 2.175549 26.938536l0.434905 1.740644c0.86674 9.555633 2.171456 18.682501 3.914146 27.373441 16.075117 92.980671 59.95858 177.276543 126.442784 242.889913l0 0 0.434905 0.434905c17.811668 17.381879 37.363979 33.892925 57.788148 48.232514 54.315046 38.234813 115.145483 63.871703 179.889043 75.169003 1.305739 0.434905 2.607384 0.434905 3.9121 0.434905 10.861372 0 19.987217-7.824199 21.723767-18.252713 0.870834-6.078439-0.434905-11.732206-3.477194-16.510022-3.472078-4.77884-8.69094-8.256034-14.33959-9.125845-34.762735-6.083555-68.219731-16.945951-99.9412-31.720446l-0.429789-0.429789c-0.434905 0-0.434905-0.434905-0.864694-0.434905-7.391341-3.478218-14.775518-6.955412-21.293979-10.862395l0 0-0.434905 0-2.176572-1.305739c-12.597923-6.955412-24.76094-14.769378-36.494169-23.030529C193.519482 786.639011 134.425595 693.217295 115.743094 585.897034c-18.687618-107.326401 5.64865-215.081567 68.219731-303.725466 27.373441-39.104623 61.264319-72.562643 99.93506-99.505271l1.305739-0.864694c68.64952-47.365774 148.603503-72.132854 232.028541-72.132854 80.382748 0 158.164253 23.464411 225.078245 68.219731l13.032828 8.69094-34.32783 49.968042L841.376683 224.819348 841.376683 224.819348zM841.376683 224.819348" p-id="20303" fill="#2c2c2c"></path><path d="M753.603617 676.717506c5.64865 0 10.861372-3.047406 13.468756-8.256034 3.9121-7.389294 0.86981-16.516162-6.519484-20.423145L508.537132 517.682419 508.537132 242.635109c0-8.255011-6.949272-15.2094-15.210423-15.2094-8.255011 0-15.205307 6.954389-15.205307 15.2094l0 293.298999L746.649228 674.975838C748.824777 676.2826 750.996233 676.717506 753.603617 676.717506L753.603617 676.717506zM753.603617 676.717506" p-id="20304" fill="#2c2c2c"></path></svg>