<?xml version="1.0" standalone="no"?><!DOCTYPE svg PUBLIC "-//W3C//DTD SVG 1.1//EN" "http://www.w3.org/Graphics/SVG/1.1/DTD/svg11.dtd"><svg t="1493084639335" class="icon" style="" viewBox="0 0 1024 1024" version="1.1" xmlns="http://www.w3.org/2000/svg" p-id="2188" xmlns:xlink="http://www.w3.org/1999/xlink" width="32" height="32"><defs><style type="text/css"></style></defs><path d="M304.431407 283.192889c0-103.879111 84.517926-188.397037 188.416-188.397037 103.860148 0 188.378074 84.517926 188.378074 188.397037 0 102.968889-83.076741 186.785185-185.704296 188.245333-0.910222-0.037926-1.763556-0.265481-2.673778-0.265481-1.763556 0-3.489185 0.113778-5.233778 0.151704C386.142815 468.517926 304.431407 385.289481 304.431407 283.192889M492.847407 566.423704c156.16 0 283.192889-127.051852 283.192889-283.211852S649.007407 0 492.847407 0c-156.178963 0-283.230815 127.051852-283.230815 283.211852 0 91.382519 43.690667 172.562963 111.085037 224.369778C154.984296 580.532148 37.925926 755.427556 37.925926 959.184593 37.925926 985.372444 59.145481 1006.592 85.333333 1006.592S132.740741 985.372444 132.740741 959.184593c0-215.36237 159.478519-390.674963 356.257185-392.969481C490.287407 566.234074 491.538963 566.423704 492.847407 566.423704" p-id="2189" fill="#1296db"></path><path d="M724.252444 884.830815c11.624296-0.967111 17.901037-8.722963 18.887111-23.248593-0.986074-13.539556-7.262815-20.80237-18.887111-21.788444l-95.876741 0c6.769778-39.708444 11.131259-78.923852 13.084444-117.665185 0.967111-12.572444-5.82163-19.361185-20.328296-20.328296-15.511704 0.967111-24.234667 7.243852-26.149926 18.887111-2.920296 40.656593-8.248889 80.384-15.985778 119.10637l-153.979259 0c-12.591407 0.986074-18.887111 8.722963-18.887111 23.248593 0.948148 13.558519 7.736889 20.821333 20.347259 21.788444l135.092148 0c-30.037333 22.281481-76.041481 40.675556-137.993481 55.201185-13.577481 2.901333-18.906074 11.112296-15.985778 24.689778 3.849481 12.572444 13.065481 17.445926 27.591111 14.52563 54.215111-9.690074 102.646519-27.610074 145.256296-53.741037 6.769778 5.802667 17.445926 10.657185 31.971556 14.52563 5.802667 1.953185 10.164148 3.413333 13.065481 4.361481 23.248593 4.835556 51.787852 15.473778 85.712593 31.952593 12.572444 5.82163 22.262519 2.901333 29.051259-8.722963 5.802667-13.577481 3.375407-23.22963-7.262815-29.051259-39.727407-18.394074-79.890963-32.900741-120.566519-43.576889l5.802667-10.164148L724.252444 884.830815z" p-id="2190" fill="#1296db"></path><path d="M426.477037 768.606815c-4.873481 12.61037-0.986074 21.788444 11.605333 27.610074 1.934222 0.986074 5.82163 2.427259 11.643259 4.361481 28.065185 10.657185 54.670222 21.788444 79.872 33.393778 11.624296 4.873481 20.347259 1.460148 26.149926-10.164148 4.835556-12.572444 1.934222-22.262519-8.722963-29.051259-30.985481-16.440889-61.496889-29.032296-91.515259-37.755259C441.931852 753.152 432.279704 757.001481 426.477037 768.606815" p-id="2191" fill="#1296db"></path><path d="M715.548444 653.842963 429.359407 653.842963c-11.605333 0.986074-17.92 7.774815-18.868148 20.347259 0.948148 13.577481 7.262815 20.840296 18.868148 21.788444l258.578963 0c11.624296 0 7.736889 17.938963-11.605333 53.76-5.82163 13.558519-1.972148 22.755556 11.605333 27.591111 12.572444 3.887407 22.736593-0.948148 30.511407-14.52563 15.473778-29.051259 24.196741-56.168296 26.130963-81.351111C747.501037 662.091852 737.810963 652.894815 715.548444 653.842963" p-id="2192" fill="#1296db"></path><path d="M536.879407 770.066963c7.736889 3.868444 13.558519 6.769778 17.426963 8.722963 12.591407 5.802667 22.281481 3.39437 29.051259-7.281778 5.82163-11.605333 3.868444-21.276444-5.783704-29.051259-22.300444-13.539556-54.272-27.098074-95.895704-40.675556-13.577481-4.816593-23.74163-2.408296-30.511407 7.262815-4.835556 12.61037-1.441185 21.807407 10.183111 27.610074C476.823704 742.456889 502.006519 753.607111 536.879407 770.066963" p-id="2193" fill="#1296db"></path><path d="M947.958519 828.188444 894.217481 828.188444 894.217481 774.428444C893.231407 759.902815 885.968593 752.165926 872.429037 751.179852c-14.52563 0.986074-22.300444 8.722963-23.248593 23.248593l0 53.76L795.439407 828.188444c-13.577481 0.967111-20.859259 8.229926-21.788444 21.769481 0.929185 14.544593 8.210963 22.300444 21.788444 23.248593l53.741037 0 0 53.76c0.948148 12.591407 8.722963 18.868148 23.248593 18.868148s21.788444-6.276741 21.788444-18.868148L894.217481 873.206519 947.958519 873.206519c14.544593-0.948148 22.281481-8.704 23.248593-23.248593C970.24 836.41837 962.503111 829.155556 947.958519 828.188444" p-id="2194" fill="#1296db"></path></svg>