<?xml version="1.0" standalone="no"?><!DOCTYPE svg PUBLIC "-//W3C//DTD SVG 1.1//EN" "http://www.w3.org/Graphics/SVG/1.1/DTD/svg11.dtd"><svg t="1493022745052" class="icon" style="" viewBox="0 0 1024 1024" version="1.1" xmlns="http://www.w3.org/2000/svg" p-id="10507" xmlns:xlink="http://www.w3.org/1999/xlink" width="32" height="32"><defs><style type="text/css"></style></defs><path d="M512 16C238.496 16 16 238.496 16 512s222.496 496 496 496c273.504 0 496-222.496 496-496S785.504 16 512 16zM512 937.136C277.568 937.136 86.864 746.432 86.864 512 86.864 277.568 277.568 86.864 512 86.864c234.432 0 425.136 190.704 425.136 425.136C937.136 746.432 746.432 937.136 512 937.136zM665.776 311.584l-150.32 150.304-150.32-150.304-50.096 50.096 150.32 150.304-150.32 150.304 50.096 50.096 150.32-150.304 150.32 150.304 50.096-50.096-150.32-150.304 150.32-150.304L665.776 311.584z" p-id="10508" fill="#2c2c2c"></path></svg>