<?xml version="1.0" standalone="no"?><!DOCTYPE svg PUBLIC "-//W3C//DTD SVG 1.1//EN" "http://www.w3.org/Graphics/SVG/1.1/DTD/svg11.dtd"><svg t="1493090233970" class="icon" style="" viewBox="0 0 1024 1024" version="1.1" xmlns="http://www.w3.org/2000/svg" p-id="21686" xmlns:xlink="http://www.w3.org/1999/xlink" width="32" height="32"><defs><style type="text/css"></style></defs><path d="M844.804247 79.184457l-58.163701 0c-16.089443 0-34.647101 9.637498-34.647101 25.306362 0 15.669888 23.168676 39.929408 39.261189 39.929408l48.543599 0c34.636868 0 48.529273 12.729929 48.529273 46.472428l0 650.691759c0 33.745569-13.892405 46.472428-48.529273 46.472428L184.558901 888.056841c-34.649148 0-48.530296-12.727882-48.530296-46.472428L136.028605 190.893678c0-33.742499 13.881149-46.472428 48.530296-46.472428l72.806189 0c16.08535 0 17.457604-24.25952 17.457604-39.929408 0-15.669888-6.181793-25.306362-22.274306-25.306362l-73.008804 0c-81.670068 0-116.318192 49.411363-116.318192 114.494661l0 644.787282c0 69.897953 43.308365 119.311363 122.501008 119.311363l652.896984 0c79.19162 0 122.508171-40.975227 122.508171-119.311363L961.127556 193.679118C961.128579 128.59582 920.284335 79.184457 844.804247 79.184457L844.804247 79.184457z" p-id="21687" fill="#1296db"></path><path d="M477.135446 433.932993 546.855344 433.932993 546.855344 457.169207 477.135446 457.169207 477.135446 433.932993Z" p-id="21688" fill="#1296db"></path><path d="M277.192671 601.930195 480.238111 799.50197c3.935636 7.223518 11.330046 12.308327 20.143783 12.308327l23.23826 0c8.81169 0 16.204054-5.085832 20.141736-12.308327l203.047486-197.571774c9.202593-8.925277 9.202593-23.387663 0-32.30373l-16.672728-16.168238c-9.202593-8.92016-24.12035-8.92016-33.322943 0l-149.962453 145.923464L546.851251 487.890906l-69.715805 0 0 211.485669L327.172993 553.453111c-9.202593-8.92016-24.12035-8.92016-33.32806 0l-16.656355 16.168238C267.990079 578.541509 267.990079 593.004919 277.192671 601.930195L277.192671 601.930195z" p-id="21689" fill="#1296db"></path><path d="M277.187555 273.128611l203.044416-197.570751c3.935636-7.223518 11.330046-12.308327 20.143783-12.308327l23.237237 0c8.812713 0 16.205077 5.085832 20.142759 12.308327l203.047486 197.570751c9.202593 8.925277 9.202593 23.388686 0 32.30373l-16.672728 16.168238c-9.202593 8.92016-24.12035 8.92016-33.322943 0L546.845111 175.678138l0 227.717352-69.715805 0L477.129306 175.683255 327.16583 321.605695c-9.202593 8.92016-24.12035 8.92016-33.32806 0l-16.655332-16.168238C267.984962 296.518321 267.984962 282.053887 277.187555 273.128611L277.187555 273.128611z" p-id="21690" fill="#1296db"></path></svg>