<?xml version="1.0" standalone="no"?><!DOCTYPE svg PUBLIC "-//W3C//DTD SVG 1.1//EN" "http://www.w3.org/Graphics/SVG/1.1/DTD/svg11.dtd"><svg t="1493197208395" class="icon" style="" viewBox="0 0 1024 1024" version="1.1" xmlns="http://www.w3.org/2000/svg" p-id="28585" xmlns:xlink="http://www.w3.org/1999/xlink" width="48" height="48"><defs><style type="text/css"></style></defs><path d="M906 291.6c-14.6-21.4-38.6-34.2-64.3-34.2l-608.9-0.1-4.3-24.1-6-42.4c-1.9-13.6-13.7-23.9-27.4-23.9h-80.7c-15.3 0-27.7 12.5-27.7 27.8s12.4 27.8 27.7 27.8h56.7l2.7 19c0.1 0.4 0.1 0.7 0.2 1.1l7.9 43.9c0.1 2.4 0.5 4.7 1.3 7l11.7 65.1c0.1 0.4 0.2 0.8 0.3 1.3L254.7 620c0.1 0.6 0.3 1.1 0.4 1.7 13 44 37.1 73.3 68.1 83.9-41.3 11.3-71.8 49.4-71.8 94.7 0 54.1 43.6 98 97.1 98 53.6 0 97.1-44 97.1-98 0-40.5-24.4-75.3-59.1-90.2h275.3c-34.7 15-59.2 49.8-59.2 90.2 0 54.1 43.6 98 97.1 98 53.6 0 97.1-44 97.1-98 0-45.2-30.5-83.3-71.8-94.6 29.1-9.8 53.6-36.2 74.5-79.9 0.1-0.3 0.3-0.6 0.4-0.8l113.4-260.1c0.2-0.4 0.3-0.8 0.5-1.2 9.4-24.7 6.5-51-7.8-72.1zM390.2 800.3c0 23.4-18.8 42.4-41.8 42.4-23.1 0-41.8-19-41.8-42.4s18.8-42.4 41.8-42.4c23 0 41.8 19 41.8 42.4z m351.2 0c0 11.3-4.4 22-12.3 30s-18.4 12.4-29.5 12.4c-23.1 0-41.8-19-41.8-42.4s18.8-42.4 41.8-42.4c23.1 0 41.8 19 41.8 42.4z m120.9-457.1l-112.9 259c-16.9 35.2-33.8 52.3-51.7 52.3H350.1c-10.3 0-29.4-6.2-41.9-47.8l-59.1-258.6-6.3-35.1h599c7.3 0 14.4 3.8 18.6 10 3.9 5.9 4.5 12.8 1.9 20.2z" p-id="28586" fill="#1296db"></path><path d="M627.5 466.5h-70.4l17.1-140.7-138.4 184.1H506l-17 140.9 138.5-184.3z" p-id="28587" fill="#1296db"></path></svg>