<?xml version="1.0" standalone="no"?><!DOCTYPE svg PUBLIC "-//W3C//DTD SVG 1.1//EN" "http://www.w3.org/Graphics/SVG/1.1/DTD/svg11.dtd"><svg t="1493196629597" class="icon" style="" viewBox="0 0 1024 1024" version="1.1" xmlns="http://www.w3.org/2000/svg" p-id="5168" xmlns:xlink="http://www.w3.org/1999/xlink" width="32" height="32"><defs><style type="text/css"></style></defs><path d="M1009.827277 520.35584l-501.04832-468.48-501.05856 467.10272a24.25344 24.25344 0 0 0-1.18784 34.29888 24.31488 24.31488 0 0 0 34.33472 1.1776L508.737997 118.30272l467.8912 437.48352a24.24832 24.24832 0 0 0 16.59904 6.5536 24.1664 24.1664 0 0 0 17.73056-7.69024 24.23296 24.23296 0 0 0-1.13152-34.29376z" fill="#1296db" p-id="5169"></path><path d="M856.933837 529.98144a24.28416 24.28416 0 0 0-24.28928 24.26368v372.096h-194.3296v-258.85184H379.207117v258.85184H184.882637v-372.096a24.27904 24.27904 0 0 0-24.28928-24.26368 24.27392 24.27392 0 0 0-24.2944 24.26368v420.62336H427.790797v-258.84672h161.94048v258.84672h291.48672v-420.62336a24.28416 24.28416 0 0 0-24.28416-24.26368zM686.898637 182.15424h145.74592v129.42336c0 13.4144 10.88 24.2688 24.28928 24.2688a24.27904 24.27904 0 0 0 24.28416-24.2688V133.62176h-194.31936a24.2688 24.2688 0 0 0 0 48.53248z" fill="#1296db" p-id="5170"></path></svg>