<?xml version="1.0" standalone="no"?><!DOCTYPE svg PUBLIC "-//W3C//DTD SVG 1.1//EN" "http://www.w3.org/Graphics/SVG/1.1/DTD/svg11.dtd"><svg t="1493196757013" class="icon" style="" viewBox="0 0 1024 1024" version="1.1" xmlns="http://www.w3.org/2000/svg" p-id="7487" xmlns:xlink="http://www.w3.org/1999/xlink" width="32" height="32"><defs><style type="text/css"></style></defs><path d="M508.582044 77.430717c242.08498 0 439.033065 196.946057 439.033065 439.037123 0 115.961965-44.922861 225.384217-126.421243 308.060296-83.258333 84.47559-194.254905 130.972769-312.611822 130.972769-118.324457 0-229.378848-46.497179-312.617908-130.972769C114.423149 741.853071 69.543907 632.429804 69.543907 516.467839 69.543907 274.376773 266.489964 77.430717 508.582044 77.430717M508.582044 16.567879c-275.645763 0-499.900975 224.254197-499.900975 499.899961 0 132.096703 51.122755 256.678874 143.950755 350.798181 94.730978 96.139953 221.150193 149.097722 355.95022 149.097722 134.772639 0 261.187796-52.955741 355.959349-149.112938 92.816842-94.157853 143.936554-218.736981 143.936554-350.78398C1008.476933 240.822076 784.224765 16.567879 508.582044 16.567879L508.582044 16.567879z" p-id="7488" fill="#1296db"></path><path d="M508.601318 322.510148c27.154969 0 115.880814 8.961038 115.880814 124.090197 0 71.701495-21.550516 125.584379-60.686335 151.684393-6.866342 4.572828-9.855722 13.151445-7.301512 20.993621l1.696044 5.171312c12.250675 37.976382 23.806499 73.87937 50.406602 86.171634 16.923926 7.842177 32.750293 14.863719 47.358388 21.369957 12.092431 5.409692 23.088317 10.358855 33.224009 15.068624 2.797662 1.297393 5.033357 2.43147 7.682919 3.689302 7.026615 3.31601 13.950777 6.585359 20.017787 9.67922 3.093861 1.558089 5.589237 3.053286 8.420374 4.572828 4.910617 2.634346 9.85978 5.246377 14.089747 7.820875 2.796647 1.674742 5.049587 3.354557 7.565251 5.009012 3.551347 2.373651 7.16457 4.731071 10.216842 7.12501 2.293515 1.81777 4.148817 3.694374 6.16642 5.52736 2.555225 2.336119 5.129723 4.669194 7.26398 7.105736 1.754878 2.013546 3.173997 4.148817 4.647892 6.2638 1.758936 2.47306 3.491498 4.930904 4.890329 7.565251 1.239573 2.337133 2.194105 4.828452 3.151681 7.323828 1.077272 2.732741 2.135271 5.510116 2.935618 8.461963 0.716153 2.771288 1.235516 5.748495 1.734591 8.741932 0.301271 1.855302 0.538636 3.810014 0.760785 5.765739-75.536868 73.439129-174.638812 113.790176-280.122225 113.790176-105.449938 0-204.592458-40.350033-280.168886-113.790176 0.237365-1.997315 0.459514-4.010861 0.77803-5.907753 0.499075-2.913301 0.997136-5.827617 1.717346-8.519783 0.799332-3.053286 1.87559-5.887465 2.993437-8.700343 0.957575-2.41524 1.87559-4.848739 3.073573-7.126024 1.414047-2.671879 3.211529-5.186528 4.985681-7.700163 1.477953-2.077452 2.854467-4.190406 4.595144-6.16642 2.135271-2.436542 4.727014-4.769618 7.281224-7.105736 2.016589-1.855302 3.892178-3.75118 6.208009-5.56895 2.974164-2.314817 6.503194-4.62659 9.958175-6.941407 2.61203-1.737634 4.967422-3.476282 7.86145-5.208845 4.013904-2.416255 8.703386-4.891343 13.269113-7.365418 3.137479-1.674742 5.931084-3.333255 9.341431-5.050601 5.468526-2.79259 11.77493-5.747481 18.000184-8.700343 3.311953-1.578376 6.209024-3.052271 9.761385-4.689482 10.099174-4.66818 21.035211-9.601113 33.048521-14.968201 14.585779-6.544784 30.414174-13.590672 47.352302-21.369957 26.524025-12.292264 38.097093-48.237856 50.390372-86.273072l1.658512-5.069874c2.513635-7.842177-0.440241-16.420794-7.26398-20.993621-39.173351-26.12233-60.729954-80.0042-60.729954-151.684393C392.711374 331.471187 481.397658 322.510148 508.601318 322.510148M508.601318 261.647311c-21.355755 0-62.915944 3.729878-101.329524 28.713058-23.289165 15.146732-41.601778 35.499264-54.427607 60.492589-13.931504 27.148883-20.99565 59.362569-20.99565 95.747388 0 77.471292 21.786867 140.384193 61.999958 181.007094-1.990215 5.688647-3.984487 10.995886-6.028464 15.737101-3.389046 7.86145-5.832689 11.575097-6.965752 13.06928-12.58542 5.764725-24.488163 11.097324-36.023699 16.264579-2.85041 1.277105-5.657201 2.533923-8.419359 3.773496-13.919331 6.219168-24.300502 10.921836-33.637876 15.237011l0 0c-2.785489 1.28522-5.158125 2.441614-7.250793 3.463095-1.034668 0.505162-2.069336 1.010323-3.154724 1.528672l-2.435528 1.154365c-5.632856 2.667821-11.457429 5.425922-16.9503 8.226627-3.147623 1.587506-5.771826 3.045171-7.887824 4.218809-0.85918 0.476759-1.714303 0.953518-2.607973 1.431291l-0.162301 0.086222-0.161287 0.088251-2.297572 1.240588c-4.1194 2.221494-8.785551 4.738172-13.313746 7.46077-3.562505 2.136286-6.431173 4.107227-8.528912 5.547648-0.563996 0.387493-1.125962 0.777016-1.708217 1.163495l-0.085208 0.056805-0.085208 0.05782-1.231458 0.823677c-3.699446 2.472046-7.892896 5.272751-12.236474 8.654696l-0.096366 0.07405-0.095352 0.075064c-3.875948 3.042128-6.848084 5.843847-8.815982 7.698135-0.313444 0.295185-0.625873 0.591384-0.944388 0.885554l-0.44227 0.403723c-3.048214 2.785489-7.217318 6.594488-11.410768 11.369178-3.614238 4.108242-6.160334 7.755954-7.847249 10.17018-0.212006 0.3033-0.422997 0.608628-0.63906 0.909899l-0.063906 0.089265-0.063906 0.09028-0.219106 0.3104c-2.252939 3.189213-5.657201 8.009549-8.83627 14.016712l-0.037532 0.071007-0.037532 0.071007c-2.590728 4.926847-4.327348 9.331287-5.476641 12.245603l-0.304314 0.768901c-1.688944 4.250255-3.642641 9.447941-5.253477 15.561613-1.414047 5.317383-2.250911 10.200612-2.863597 13.774275l-0.019273 0.111582-0.026374 0.1552c-0.519363 3.098933-0.840922 5.824574-1.098574 8.015636l-0.089265 0.757742L164.441244 864.39228l21.57689 20.967248c86.936477 84.478633 201.499611 131.003201 322.584198 131.003201 121.099803 0 235.650764-46.528625 322.549709-131.014359l21.417633-20.823206-3.369772-29.680777c-0.281998-2.488276-0.641089-5.46244-1.158423-8.648609l-0.021302-0.131869-0.021302-0.132884c-0.674563-4.043321-1.505341-8.789608-2.84128-13.955849l-0.088251-0.339818-0.091294-0.338803c-1.516499-5.599381-3.275435-10.332481-4.957278-14.612153-1.296378-3.375859-3.216601-8.327051-6.107586-13.778332-3.22573-6.074111-6.578258-10.833585-8.864672-14.049172l-0.379378-0.546751c-1.771109-2.558268-4.448059-6.425087-8.183009-10.710845l-0.051733-0.059848-0.050719-0.05782c-4.276629-4.882214-8.555286-8.791637-11.679579-11.647118l-0.297214-0.271854-0.066949-0.062892-0.067964-0.061877c-0.36112-0.328659-0.71311-0.660362-1.067128-0.993079-1.844144-1.728505-4.631662-4.33952-8.222569-7.187901l-0.124769-0.098395-0.124769-0.097381c-4.531238-3.55439-8.883946-6.454504-12.724391-9.014801l-1.232472-0.822663-0.190704-0.126798-0.190704-0.125783c-0.545737-0.359091-1.069157-0.723253-1.595621-1.084373-1.950654-1.337968-4.609346-3.162839-7.945643-5.170298-5.143924-3.122264-10.265532-5.865149-15.221796-8.517754l-1.560117-0.83585c-0.740498-0.398652-1.464766-0.805418-2.191062-1.210156-1.987172-1.109732-4.452117-2.486247-7.481057-4.015933-6.91199-3.520915-14.323054-7.0185-21.494726-10.402473-0.894684-0.425025-1.731548-0.832806-2.568412-1.241602-1.590549-0.774987-3.395132-1.652426-5.542576-2.648548-10.129605-4.70774-20.915514-9.568652-33.980737-15.413514l-0.045647-0.020288-0.044633-0.020288-3.439765-1.531715c-13.071309-5.820516-26.566629-11.829707-40.953589-18.4739-1.120891-1.471866-3.566562-5.169284-6.962709-13.048992-2.039919-4.732086-4.028105-10.029181-6.012234-15.70667 40.216134-40.626959 61.993872-103.544931 61.993872-181.033468 0-36.386848-7.06719-68.602562-21.005794-95.754488-12.827857-24.990281-31.143514-45.3418-54.435722-60.487517C571.487845 265.376174 529.945915 261.647311 508.601318 261.647311L508.601318 261.647311z" p-id="7489" fill="#1296db"></path></svg>