<?xml version="1.0" standalone="no"?><!DOCTYPE svg PUBLIC "-//W3C//DTD SVG 1.1//EN" "http://www.w3.org/Graphics/SVG/1.1/DTD/svg11.dtd"><svg t="1493022232077" class="icon" style="" viewBox="0 0 1024 1024" version="1.1" xmlns="http://www.w3.org/2000/svg" p-id="2954" xmlns:xlink="http://www.w3.org/1999/xlink" width="32" height="32"><defs><style type="text/css"></style></defs><path d="M644.5056 278.96832c27.4176 27.4176 45.69088 63.96928 45.69088 114.23232 0 36.55168-9.1392 63.96928-31.98464 91.38176-9.1392 13.70624-31.98464 31.98464-63.96928 63.96928-18.2784 18.2784-31.98464 31.98464-41.12384 45.69088-13.70624 18.2784-18.2784 41.12384-18.2784 63.96928v22.84544h-50.26304v-22.84544c0-22.84544 4.56704-45.69088 13.70624-63.96928 13.70624-22.84544 36.55168-54.83008 77.67552-91.38176 18.2784-18.2784 31.98464-31.98464 36.55168-41.12384 18.2784-22.84544 27.4176-45.69088 27.4176-68.53632 0-36.55168-9.1392-63.96928-31.98464-82.24768-22.84544-22.84544-50.26304-31.98464-91.38176-31.98464-45.69088 0-77.67552 13.70624-100.52096 45.69088-18.2784 22.84544-27.4176 54.83008-27.4176 100.52096h-50.26304c0-54.83008 13.70624-100.52096 45.69088-137.07776 31.98464-36.55168 77.67552-54.83008 137.07776-54.83008 50.27328 0.00512 91.392 13.71136 123.37664 45.696z" p-id="2955" fill="#1296db"></path><path d="M512 55.08096c251.30496 0 456.91904 205.61408 456.91904 456.91904S763.30496 968.91904 512 968.91904 55.08096 763.30496 55.08096 512 260.69504 55.08096 512 55.08096m0-45.696C233.27744 9.38496 9.38496 233.27744 9.38496 512S233.27744 1014.61504 512 1014.61504s502.61504-223.89248 502.61504-502.61504S790.72256 9.38496 512 9.38496z" p-id="2956" fill="#1296db"></path><path d="M510.50496 785.70496m-49.28 0a49.28 49.28 0 1 0 98.56 0 49.28 49.28 0 1 0-98.56 0Z" p-id="2957" fill="#1296db"></path></svg>