<?xml version="1.0" standalone="no"?><!DOCTYPE svg PUBLIC "-//W3C//DTD SVG 1.1//EN" "http://www.w3.org/Graphics/SVG/1.1/DTD/svg11.dtd"><svg t="1493022155360" class="icon" style="" viewBox="0 0 1024 1024" version="1.1" xmlns="http://www.w3.org/2000/svg" p-id="2155" xmlns:xlink="http://www.w3.org/1999/xlink" width="32" height="32"><defs><style type="text/css"></style></defs><path d="M511.999988 698.210832c-102.864207 0-186.210832-83.426414-186.210832-186.210832 0-102.864207 83.346625-186.211855 186.210832-186.211855 102.783396 0 186.131043 83.347648 186.131043 186.211855C698.131032 614.784419 614.783384 698.210832 511.999988 698.210832L511.999988 698.210832zM511.999988 279.23646c-128.579748 0-232.76354 104.223687-232.76354 232.76354 0 128.539853 104.183792 232.683752 232.76354 232.683752 128.499959 0 232.723646-104.144921 232.723646-232.683752C744.723634 383.460147 640.499947 279.23646 511.999988 279.23646L511.999988 279.23646zM977.448303 569.430589c-0.202541 0.079789-0.362119 0.159578-0.560568 0.159578l-47.592009 11.997994c-16.397634 4.079461-29.317291 16.717812-33.674991 33.034634-8.996705 33.515413-22.358271 65.750112-39.833054 95.825398-8.516949 14.638187-8.357372 32.714456 0.399967 47.272854l25.595857 42.713636-81.306894 81.267c-0.159578 0-0.361096-0.159578-0.520673-0.159578l-42.554059-25.516068c-7.318071-4.479428-15.636571-6.637819-23.876305-6.637819-8.038216 0-16.077455 2.078602-23.275843 6.238875-30.075286 17.357146-62.150407 30.634831-95.50522 39.593687-16.316822 4.319851-29.035985 17.197568-33.114423 33.674991l-11.997994 47.992999c-0.039894 0.159578-0.079789 0.320178-0.159578 0.559545L454.448693 977.448315l-12.158595-48.632333c-4.119356-16.397634-16.756684-29.275351-33.074528-33.595202-33.314918-8.958857-65.469828-22.236542-95.545114-39.593687-7.159516-4.15925-15.197732-6.238875-23.196054-6.238875-8.358395 0-16.597106 2.158391-23.995988 6.637819l-42.513141 25.516068c-0.159578 0-0.320178 0.159578-0.439862 0.159578l-81.346789-81.267 25.635752-42.713636c8.718467-14.557375 8.879068-32.634667 0.360073-47.272854-17.476829-30.155074-30.87522-62.309985-39.834077-95.825398-4.318828-16.316822-17.277357-28.955173-33.634073-33.034634l-47.632926-11.997994c-0.119683 0-0.360073-0.079789-0.559545-0.159578L46.513825 454.489622l48.192471-11.997994c16.357739-4.15925 29.315246-16.797601 33.634073-33.195235 8.958857-33.435624 22.356225-65.590535 39.834077-95.745609 8.518995-14.638187 8.358395-32.795267-0.360073-47.272854l-25.315573-42.313669c-0.120706-0.159578-0.24039-0.320178-0.280284-0.479756l81.306894-81.267 42.953003 25.756458c7.398882 4.398617 15.637594 6.638842 23.995988 6.638842 7.998322 0 16.037561-2.079625 23.196054-6.238875 30.075286-17.357146 62.230196-30.714619 95.545114-39.593687 16.317845-4.39964 28.955173-17.277357 33.074528-33.673968l12.158595-48.552544 115.021779 0c0.079789 0.24039 0.119683 0.320178 0.159578 0.559545l11.997994 47.992999c4.078438 16.396611 16.797601 29.275351 33.114423 33.673968 33.354812 8.879068 65.429934 22.236542 95.50522 39.593687 7.198387 4.15925 15.237626 6.238875 23.275843 6.238875 8.239734 0 16.558234-2.239203 23.876305-6.638842l43.033815-25.756458 81.304848 81.267c-0.075697 0.159578-0.117637 0.320178-0.235275 0.479756l-25.318642 42.23388c-8.757339 14.557375-8.916917 32.714456-0.399967 47.352643 17.474783 30.075286 30.837371 62.309985 39.833054 95.745609 4.357699 16.397634 17.277357 29.034962 33.674991 33.195235l48.152577 11.997994L977.445234 569.430589 977.448303 569.430589zM989.808416 409.615549l-49.234841-12.397961c-10.158759-37.91403-25.238853-73.828223-44.510932-107.023458l26.235191-43.673149c8.03617-15.597699 13.277685-34.954681 0-48.232366l-96.587484-96.624309c-5.956545-5.999509-13.358496-8.3185-20.993677-8.3185-9.320976 0-19.078744 3.519916-27.278584 8.3185l-43.913538 26.395792c-33.114423-19.116593-68.869038-34.154747-106.743174-44.232694l-12.397961-49.672657c-5.359152-16.796578-15.278544-34.154747-34.115875-34.154747L443.730389 0c-18.877226 0-29.915708 17.357146-34.114852 34.154747l-12.437856 49.672657c-37.834241 10.077947-73.587833 25.116101-106.703279 44.232694l-43.993327-26.395792c-8.119028-4.798584-17.837925-8.3185-27.23562-8.3185-7.599377 0-15.038154 2.320015-21.03664 8.3185l-96.504626 96.624309c-13.357474 13.277685-8.078111 32.634667 0 48.232366l26.156425 43.673149c-19.197404 33.195235-34.314324 69.109428-44.473083 107.023458l-49.232795 12.397961c-16.756684 4.240062-34.114852 15.277521-34.114852 34.074958l0 136.539198c0 18.877226 17.357146 28.876407 34.114852 34.154747l49.232795 12.318172c10.158759 37.994841 25.275679 73.909035 44.473083 107.103246l-26.156425 43.673149c-8.838151 14.797765-13.357474 34.954681 0 48.232366l96.504626 96.624309c5.879825 5.838908 12.917612 8.078111 20.356389 8.078111 9.279035 0 19.197404-3.599705 27.915872-8.078111l43.993327-26.395792c33.115446 19.116593 68.869038 34.074958 106.703279 44.232694l12.437856 49.672657c4.199144 16.717812 15.237626 34.154747 34.114852 34.154747l136.538175 0c18.837332 0 28.755701-17.436935 34.115875-34.154747l12.397961-49.672657c37.873112-10.158759 73.628751-25.116101 106.743174-44.232694l43.913538 26.395792c8.718467 4.479428 18.637859 8.078111 27.955766 8.078111 7.438777 0 14.477586-2.239203 20.316494-8.078111l96.587484-96.624309c13.277685-13.277685 8.799279-33.435624 0-48.232366l-26.235191-43.673149c19.272078-33.194212 34.352173-69.109428 44.510932-107.103246l49.234841-12.318172c16.754638-5.27834 34.150655-15.277521 34.150655-34.154747L1023.960094 443.690506C1023.958048 424.893069 1006.563054 413.85561 989.808416 409.615549L989.808416 409.615549z" p-id="2156" fill="#1296db"></path></svg>