<?xml version="1.0" standalone="no"?><!DOCTYPE svg PUBLIC "-//W3C//DTD SVG 1.1//EN" "http://www.w3.org/Graphics/SVG/1.1/DTD/svg11.dtd"><svg t="1493022318558" class="icon" style="" viewBox="0 0 1024 1024" version="1.1" xmlns="http://www.w3.org/2000/svg" p-id="3706" xmlns:xlink="http://www.w3.org/1999/xlink" width="32" height="32"><defs><style type="text/css"></style></defs><path d="M933.302857 203.496229H87.771429L0 433.987657c0 69.001143 57.051429 126.257371 127.268571 126.257372 70.217143 0 128.731429-55.789714 128.731429-126.257372 0 69.001143 57.051429 126.257371 127.268571 126.257372 70.217143 0 128.731429-55.789714 128.731429-126.257372 0 69.001143 57.051429 126.257371 127.268571 126.257372 70.217143 0 127.268571-55.789714 127.268572-126.257372 0 69.001143 57.051429 126.257371 128.731428 126.257372 70.217143 0 128.731429-55.789714 128.731429-126.257372l-90.697143-230.491428zM863.085714 599.881143v293.6192H160.914286V599.882971H87.771429v308.3008c0 26.426514 29.257143 58.724571 55.588571 58.724572h735.817143c26.331429 0 55.588571-32.298057 55.588571-58.724572V599.882971H863.085714z m70.217143-397.855086l5.7216 5.741714-5.7216-5.741714zM146.285714 144.771657h731.428572c24.868571 0 43.885714-19.0848 43.885714-44.042971S902.582857 56.685714 877.714286 56.685714H146.285714c-24.868571 0-43.885714 19.0848-43.885714 44.042972s19.017143 44.042971 43.885714 44.042971z" p-id="3707" fill="#1296db"></path></svg>