<?xml version="1.0" standalone="no"?><!DOCTYPE svg PUBLIC "-//W3C//DTD SVG 1.1//EN" "http://www.w3.org/Graphics/SVG/1.1/DTD/svg11.dtd"><svg t="1493023166733" class="icon" style="" viewBox="0 0 1024 1024" version="1.1" xmlns="http://www.w3.org/2000/svg" p-id="19177" xmlns:xlink="http://www.w3.org/1999/xlink" width="32" height="32"><defs><style type="text/css"></style></defs><path d="M832 319.996107 832 319.996107 832 208.854734C832 164.258908 797.615249 128 755.199509 128L140.80049 128C98.491356 128 64 164.147587 64 208.737896L64 815.262103C64 859.987857 98.384751 896 140.80049 896L755.199509 896C797.508644 896 832 859.797099 832 815.138558L832 714.105263 789.333333 714.105263 789.333333 815.138558C789.333333 836.66326 773.485269 853.333333 755.199509 853.333333L140.80049 853.333333C122.383006 853.333333 106.666667 836.830396 106.666667 815.262103L106.666667 208.737896C106.666667 187.295128 122.499361 170.666667 140.80049 170.666667L755.199509 170.666667C773.521822 170.666667 789.333333 187.321248 789.333333 208.854734L789.333333 319.996107 832 319.996107Z" p-id="19178" fill="#2c2c2c"></path><path d="M533.333333 469.244292 533.333333 469.244292 533.333333 554.755708C533.333333 578.169493 552.489233 597.333333 575.986543 597.333333L853.34679 597.333333C876.913574 597.333333 896 578.263388 896 554.755708L896 469.244292C896 445.830507 876.8441 426.666667 853.34679 426.666667L575.986543 426.666667C552.419759 426.666667 533.333333 445.736612 533.333333 469.244292L533.333333 469.244292ZM490.666667 469.244292C490.666667 422.165169 528.862895 384 575.986543 384L853.34679 384C900.467657 384 938.666667 422.325786 938.666667 469.244292L938.666667 554.755708C938.666667 601.834831 900.470438 640 853.34679 640L575.986543 640C528.865677 640 490.666667 601.674214 490.666667 554.755708L490.666667 469.244292 490.666667 469.244292Z" p-id="19179" fill="#2c2c2c"></path><path d="M746.666667 512m-42.666667 0a2 2 0 1 0 85.333333 0 2 2 0 1 0-85.333333 0Z" p-id="19180" fill="#2c2c2c"></path></svg>