<?xml version="1.0" standalone="no"?><!DOCTYPE svg PUBLIC "-//W3C//DTD SVG 1.1//EN" "http://www.w3.org/Graphics/SVG/1.1/DTD/svg11.dtd"><svg t="1493022645515" class="icon" style="" viewBox="0 0 1024 1024" version="1.1" xmlns="http://www.w3.org/2000/svg" p-id="9542" xmlns:xlink="http://www.w3.org/1999/xlink" width="32" height="32"><defs><style type="text/css"></style></defs><path d="M512 16C238.496 16 16 238.496 16 512c0 273.504 222.496 496 496 496 273.504 0 496-222.496 496-496C1008 238.496 785.504 16 512 16zM512 937.152C277.568 937.152 86.864 746.432 86.864 512 86.864 277.568 277.568 86.848 512 86.848c234.432 0 425.136 190.72 425.136 425.136C937.136 746.432 746.432 937.152 512 937.152zM470.304 634.16l-132.56-113.632-46.112 53.792 198.112 169.808 233.728-415.52-61.744-34.736L470.304 634.16z" p-id="9543" fill="#2c2c2c"></path></svg>